<svg width="26" height="19" viewBox="0 0 26 19" fill="none" xmlns="http://www.w3.org/2000/svg">
<path d="M0.189697 9.25H0.626574C2.9068 9.25 4.89818 7.70728 5.46796 5.49939L6.12335 2.95976C6.34511 2.10043 7.12017 1.5 8.00764 1.5V1.5C9.27367 1.5 10.2026 2.68978 9.89556 3.918L7.17812 14.7878C6.8337 16.1654 7.87569 17.5 9.29577 17.5V17.5C10.2974 17.5 11.1705 16.8183 11.4134 15.8466L14.5494 3.30278C14.8142 2.24327 15.7662 1.5 16.8583 1.5V1.5C18.4355 1.5 19.5765 3.00616 19.1494 4.5244L16.2742 14.7476C15.8856 16.1293 16.9239 17.5 18.3592 17.5V17.5C19.3296 17.5 20.1816 16.8546 20.4443 15.9205L24.5001 1.5" stroke="white" stroke-width="3"/>
</svg>
