<svg width="7" height="7" viewBox="0 0 7 7" fill="none" xmlns="http://www.w3.org/2000/svg">
<path d="M4.00117 0.447968C4.1118 0.291872 4.3574 0.365276 4.36422 0.556474L4.44127 2.71445C4.44335 2.77265 4.47069 2.82705 4.51614 2.86344L6.13147 4.15673C6.27176 4.26906 6.20422 4.49504 6.02529 4.51196L3.96522 4.70677C3.90725 4.71226 3.85454 4.74273 3.82087 4.79024L2.57231 6.55203C2.46169 6.70813 2.21609 6.63472 2.20926 6.44353L2.13222 4.28555C2.13014 4.22735 2.1028 4.17295 2.05734 4.13656L0.442021 2.84327C0.301722 2.73094 0.369264 2.50496 0.548192 2.48804L2.60827 2.29323C2.66624 2.28774 2.71894 2.25727 2.75261 2.20976L4.00117 0.447968Z" fill="white"/>
</svg>
