<svg width="7" height="7" viewBox="0 0 7 7" fill="none" xmlns="http://www.w3.org/2000/svg">
<path d="M3.81148 0.447968C3.9221 0.291872 4.1677 0.365276 4.17453 0.556474L4.25157 2.71445C4.25365 2.77265 4.28099 2.82705 4.32645 2.86344L5.94177 4.15673C6.08207 4.26906 6.01453 4.49504 5.8356 4.51196L3.77552 4.70677C3.71755 4.71226 3.66485 4.74273 3.63117 4.79024L2.38261 6.55203C2.27199 6.70813 2.02639 6.63472 2.01956 6.44353L1.94252 4.28555C1.94044 4.22735 1.9131 4.17295 1.86764 4.13656L0.252323 2.84327C0.112024 2.73094 0.179566 2.50496 0.358495 2.48804L2.41857 2.29323C2.47654 2.28774 2.52925 2.25727 2.56292 2.20976L3.81148 0.447968Z" fill="white"/>
</svg>
