<svg width="26" height="19" viewBox="0 0 26 19" fill="none" xmlns="http://www.w3.org/2000/svg">
<path d="M0 9.25H0.436877C2.7171 9.25 4.70848 7.70728 5.27826 5.49939L5.93365 2.95976C6.15541 2.10043 6.93047 1.5 7.81794 1.5V1.5C9.08397 1.5 10.0129 2.68978 9.70586 3.918L6.98842 14.7878C6.644 16.1654 7.68599 17.5 9.10607 17.5V17.5C10.1077 17.5 10.9808 16.8183 11.2237 15.8466L14.3597 3.30278C14.6245 2.24327 15.5765 1.5 16.6686 1.5V1.5C18.2458 1.5 19.3868 3.00616 18.9598 4.5244L16.0845 14.7476C15.6959 16.1293 16.7342 17.5 18.1695 17.5V17.5C19.1399 17.5 19.9919 16.8546 20.2546 15.9205L24.3104 1.5" stroke="white" stroke-width="3"/>
</svg>
