<svg width="392" height="46" viewBox="0 0 392 46" fill="none" xmlns="http://www.w3.org/2000/svg">
<path d="M8 33.5L25.845 21.0085C30.035 18.0755 35.6936 18.4174 39.5001 21.8334L47.3858 28.9103C50.515 31.7186 54.9715 32.4974 58.8678 30.9169L98.5354 14.8253C102.735 13.1216 107.55 14.1681 110.663 17.4614L125.318 32.9615C128.914 36.7652 134.693 37.5078 139.134 34.7368L178.597 10.1148C184.492 6.43634 192.279 9.07833 194.719 15.5849L200.303 30.4759C203.162 38.0982 213.022 40.0827 218.607 34.1597L229.094 23.037C233.557 18.3034 241.493 20.4311 242.989 26.7625V26.7625C244.379 32.6422 251.449 35.0318 256.121 31.2008L263.954 24.7775C268.041 21.4261 273.934 21.4553 277.988 24.8472L289.839 34.7636C293.263 37.6286 298.08 38.1398 302.029 36.0575L319.177 27.0159C321.634 25.7202 324.491 25.4023 327.173 26.126L353.092 33.1201C354.027 33.3723 354.99 33.5 355.958 33.5H383.5" stroke="#00FF62" stroke-width="16" stroke-linecap="round"/>
</svg>
